<?xml version="1.0" encoding="utf-8"?>
<!-- Generator: Adobe Illustrator 21.1.0, SVG Export Plug-In . SVG Version: 6.00 Build 0)  -->
<svg version="1.1" id="Layer_1" xmlns="http://www.w3.org/2000/svg" xmlns:xlink="http://www.w3.org/1999/xlink" x="0px" y="0px"
	 viewBox="0 0 63.5 154.7" style="enable-background:new 0 0 63.5 154.7;" xml:space="preserve">
<g>
	<path style="fill:#ffffff" d="M7.8,116.5c-0.3-0.1-0.9-0.1-1.6,0.6c-1,1.1-1.5,2.5-1.4,4.3c0,0.5,0.1,0.7,0.2,1.1c0.2,0.6,0.8,1.1,1.2,1.1
		c0.5,0.1,1-0.2,1.5-0.8c1.1-1.3,1.6-3.7,1.1-5.2C8.6,117,8.2,116.6,7.8,116.5"/>
	<path style="fill:#ffffff" d="M31.4,134.1c0.6,1.2,1.5,1.9,2.3,2.1c0.9,0.3,3.5,0.8,5.5,1.1c2.3,0.2,4.1-1,5.1-3.5c-0.8,0-1.6-0.1-2.4-0.2
		c-0.2,0.5-0.4,1-0.6,1.5c-0.2,0.3-0.6,0.5-1,0.3c-0.3-0.2-0.5-0.6-0.3-1c0.2-0.3,0.3-0.6,0.4-1c-0.4-0.1-0.9-0.2-1.3-0.2
		c-0.2,0.6-0.3,1.1-0.5,1.6c-0.2,0.4-0.6,0.5-0.9,0.4c-0.4-0.2-0.5-0.6-0.4-0.9c0.1-0.3,0.3-0.8,0.4-1.3c-0.2,0-0.5-0.1-0.7-0.2
		c-0.2-0.1-0.5-0.1-0.7-0.2c-0.1,0.4-0.3,0.8-0.5,1.3c-0.2,0.4-0.6,0.5-0.9,0.4c-0.4-0.2-0.5-0.6-0.4-0.9c0.2-0.4,0.3-0.7,0.4-1.1
		c-1.2-0.3-2.5-0.6-3.7-1C30.9,132.4,31.1,133.4,31.4,134.1"/>
	<path style="fill:#ffffff" d="M44.8,132.4c0.3-1.4,0-2.4-0.4-3c-0.4-0.8-1.2-1.3-2-1.5l-0.9-0.2c-0.8-0.2-2.1-0.4-4-0.9
		c-2.5-0.6-4.7,0.5-5.9,3c1.2,0.3,2.4,0.7,3.6,1c0.2-0.9,0.2-1.5,0.2-1.5c0-0.4,0.4-0.7,0.8-0.7c0.4,0,0.7,0.4,0.7,0.7
		c0,0.1,0,0.8-0.3,1.8c0.2,0.1,0.5,0.1,0.7,0.2c0.2,0.1,0.5,0.1,0.7,0.2c0.2-1,0.3-1.8,0.3-1.9c0.1-0.4,0.4-0.7,0.8-0.6
		c0.4,0.1,0.7,0.4,0.6,0.8c0,0.1-0.1,0.9-0.4,1.9c0.5,0.1,0.9,0.2,1.4,0.2c0.2-0.9,0.2-1.5,0.2-1.6c0-0.4,0.4-0.7,0.8-0.7
		c0.4,0,0.7,0.3,0.7,0.7c0,0.1,0,0.8-0.2,1.7C43.2,132.3,44.1,132.3,44.8,132.4"/>
	<path style="fill:#ffffff" d="M49,123.4c-0.1-2.6-0.6-5-1.5-7.3c-1.1-2.8-4.7-4.8-9.5-5.9c-8.9-2-20.5,1.3-27.9,7.4c0.3,1.1,0.2,2.5-0.2,3.7
		c5.3,2.8,13.1,5.9,20.4,8.1c1.7-3.9,5-4.6,7.6-4c1.8,0.5,3,0.7,3.9,0.9l1,0.2c1.2,0.3,2.3,1.1,2.9,2.2c0.5,0.8,0.9,2,0.6,3.7
		c0.9-0.1,1.3-0.2,1.4-0.3C48.6,129.4,49.1,126.5,49,123.4"/>
	<path style="fill:#ffffff" d="M39.1,138.7c-2-0.2-4.7-0.7-5.8-1.1c-1.3-0.4-2.5-1.5-3.1-2.9c-0.3-0.6-0.5-1.3-0.5-2.2c0-0.5,0-1.1,0.2-1.8
		c-7.3-2.2-15.1-5.3-20.5-8.1c-0.2,0.3-0.4,0.7-0.7,0.9c-0.4,0.5-0.9,0.8-1.3,1c0.5,4.4,2.1,8.8,4.6,12.5c3.3,5,7.8,8.4,12.6,9.5
		c1.7,0.4,4,0.9,6,0.4c7.5-1.6,13.5-6.7,16.5-13.4c-0.3,0.1-0.7,0.1-1.2,0.1C44.1,138.7,40.6,138.9,39.1,138.7"/>
	<path style="fill:#ffffff" d="M4.4,118c0.2-0.5,0.5-1,0.9-1.5c0.3-0.3,0.6-0.6,0.9-0.8c0.9-4,2.7-7.6,5.4-10.3c-4,2.8-7.1,6.8-8.7,11.4
		C3.2,117.1,3.8,117.6,4.4,118"/>
	<path style="fill:#ffffff" d="M4,119.4c-0.6-0.4-1.1-0.8-1.4-1.1c-0.6,2.2-0.9,4.6-0.8,7c0,0.5,0.1,1,0.1,1.5c0.4-1.4,1.1-2.9,2.1-4.5
		C3.7,121.4,3.7,120.4,4,119.4"/>
	<path style="fill:#ffffff" d="M5.9,124.7c-0.5-0.1-1-0.4-1.3-0.9c-1.8,2.7-2.5,5.1-1.9,7.2c2.7,9,10.8,15.6,20.4,16.5
		C13.9,144.8,7.1,135.3,5.9,124.7"/>
	<path style="fill:#ffffff" d="M30.1,81c0-17.6-27-17.2-27-39.5c0-13.4,12.1-16.3,12.1-26.9c0-10.1-9.8-10.4-9.8-10.4s2.5-3,9.7-3
		c7.1,0,11,3.7,11,13.4c0,14.5-5.2,21.7,5.9,32.7c0.8,0.8,3.1,3.1,6.1,3.1c4.5,0,0.8-15.1,19.4-20.9c0,0,1.1,1.7,2.1,5.4
		c-1.1,0.5-4.3,2.2-4.1,2.9c0.2,0.8,4.3-0.1,4.8-0.2c0.8,3.5,1.5,8.3,1.5,14.4c-21.7,0-29.9,26.3-25,31.1c0,0-2.4,3.2-4.4,7.1
		c0,0,0.8,0.5,2.8,0.5c2.1,0,6-1.1,7.5-2.6c0.3-0.3,0.7,0,0.4,0.4C37.9,96.1,30,90.6,30,97.7c0,3.8,2.1,4.3,3.3,4.7
		c5.1,1.8,9.3,5.2,12.1,9.7c-1.9-1.6-4.3-2.7-7.2-3.3c-9.1-2-21.1,1.2-28.8,7.5c-0.4-0.5-0.9-0.8-1.4-0.9c-0.1,0-0.1,0-0.2,0
		c1-4.3,3-8,5.7-10.5c0.1-6,5.1-1.7,11.2-7.7C26.7,95.3,30.1,88.9,30.1,81 M17.2,14.6c0,6.4-2.5,7.3-2.5,11.2c0,6,8.1,6.9,8.1,6.9
		c-0.1-2.6,0.2-5.3,0.5-8.2c0.3-2.9,0.7-6.2,0.7-9.9c0-10-4.3-11.4-9-11.4c-0.3,0-0.5,0-0.7,0c0,0,0.1,2,1.7,2
		c0.7,0,0.7-0.3,1.1-0.3c0.4,0,1.8,1.4,1.8,3.5c0,2.5-2.1,2.7-2.1,2.7C17.1,12.1,17.2,13.3,17.2,14.6"/>
</g>
</svg>
